<mxfile host="app.diagrams.net" agent="Mozilla/5.0 (Windows NT 10.0; Win64; x64) AppleWebKit/537.36 (KHTML, like Gecko) Chrome/134.0.0.0 Safari/537.36" version="26.1.1">
  <diagram name="Sivu-1" id="PSpdSaAe07XXLFrRW1HN">
    <mxGraphModel dx="1050" dy="557" grid="1" gridSize="10" guides="1" tooltips="1" connect="1" arrows="1" fold="1" page="1" pageScale="1" pageWidth="827" pageHeight="1169" math="0" shadow="0">
      <root>
        <mxCell id="0" />
        <mxCell id="1" parent="0" />
        <mxCell id="3qCVsPgU-vo5xv2c4OCo-1" value="" style="rounded=0;whiteSpace=wrap;html=1;" vertex="1" parent="1">
          <mxGeometry x="74" y="20" width="726" height="490" as="geometry" />
        </mxCell>
        <mxCell id="3qCVsPgU-vo5xv2c4OCo-2" value="Actor" style="shape=umlActor;verticalLabelPosition=bottom;verticalAlign=top;html=1;outlineConnect=0;" vertex="1" parent="1">
          <mxGeometry x="20" y="250" width="30" height="60" as="geometry" />
        </mxCell>
        <mxCell id="3qCVsPgU-vo5xv2c4OCo-3" value="Aktiviteetin kohderyhmä" style="rounded=1;whiteSpace=wrap;html=1;" vertex="1" parent="1">
          <mxGeometry x="200" y="360" width="150" height="80" as="geometry" />
        </mxCell>
        <mxCell id="3qCVsPgU-vo5xv2c4OCo-4" value="(Jos sade, tuulinen tai lumisade)&lt;div&gt;Kova vai pieni?&lt;/div&gt;" style="rounded=1;whiteSpace=wrap;html=1;" vertex="1" parent="1">
          <mxGeometry x="200" y="240" width="150" height="80" as="geometry" />
        </mxCell>
        <mxCell id="3qCVsPgU-vo5xv2c4OCo-5" value="Säätila" style="rounded=1;whiteSpace=wrap;html=1;" vertex="1" parent="1">
          <mxGeometry x="200" y="130" width="150" height="80" as="geometry" />
        </mxCell>
        <mxCell id="3qCVsPgU-vo5xv2c4OCo-6" value="" style="endArrow=none;html=1;rounded=0;" edge="1" parent="1">
          <mxGeometry width="50" height="50" relative="1" as="geometry">
            <mxPoint x="90" y="270" as="sourcePoint" />
            <mxPoint x="140" y="220" as="targetPoint" />
            <Array as="points">
              <mxPoint x="200" y="160" />
            </Array>
          </mxGeometry>
        </mxCell>
        <mxCell id="3qCVsPgU-vo5xv2c4OCo-7" value="" style="endArrow=none;html=1;rounded=0;" edge="1" parent="1">
          <mxGeometry width="50" height="50" relative="1" as="geometry">
            <mxPoint x="90" y="290" as="sourcePoint" />
            <mxPoint x="200" y="290" as="targetPoint" />
            <Array as="points">
              <mxPoint x="200" y="290" />
            </Array>
          </mxGeometry>
        </mxCell>
        <mxCell id="3qCVsPgU-vo5xv2c4OCo-8" value="" style="endArrow=none;html=1;rounded=0;" edge="1" parent="1">
          <mxGeometry width="50" height="50" relative="1" as="geometry">
            <mxPoint x="90" y="300" as="sourcePoint" />
            <mxPoint x="200" y="410" as="targetPoint" />
            <Array as="points">
              <mxPoint x="200" y="410" />
            </Array>
          </mxGeometry>
        </mxCell>
        <mxCell id="3qCVsPgU-vo5xv2c4OCo-9" value="" style="endArrow=none;html=1;rounded=0;" edge="1" parent="1" source="3qCVsPgU-vo5xv2c4OCo-4" target="3qCVsPgU-vo5xv2c4OCo-5">
          <mxGeometry width="50" height="50" relative="1" as="geometry">
            <mxPoint x="250" y="250" as="sourcePoint" />
            <mxPoint x="300" y="200" as="targetPoint" />
          </mxGeometry>
        </mxCell>
        <mxCell id="3qCVsPgU-vo5xv2c4OCo-10" value="" style="endArrow=none;html=1;rounded=0;exitX=0.5;exitY=0;exitDx=0;exitDy=0;entryX=0.5;entryY=1;entryDx=0;entryDy=0;" edge="1" parent="1" source="3qCVsPgU-vo5xv2c4OCo-3" target="3qCVsPgU-vo5xv2c4OCo-4">
          <mxGeometry width="50" height="50" relative="1" as="geometry">
            <mxPoint x="285" y="250" as="sourcePoint" />
            <mxPoint x="285" y="220" as="targetPoint" />
          </mxGeometry>
        </mxCell>
        <mxCell id="3qCVsPgU-vo5xv2c4OCo-11" value="Perhe" style="rounded=1;whiteSpace=wrap;html=1;" vertex="1" parent="1">
          <mxGeometry x="380" y="360" width="90" height="30" as="geometry" />
        </mxCell>
        <mxCell id="3qCVsPgU-vo5xv2c4OCo-12" value="Ystäväporukka" style="rounded=1;whiteSpace=wrap;html=1;" vertex="1" parent="1">
          <mxGeometry x="380" y="400" width="90" height="30" as="geometry" />
        </mxCell>
        <mxCell id="3qCVsPgU-vo5xv2c4OCo-13" value="Pariskunta" style="rounded=1;whiteSpace=wrap;html=1;" vertex="1" parent="1">
          <mxGeometry x="380" y="440" width="90" height="30" as="geometry" />
        </mxCell>
        <mxCell id="3qCVsPgU-vo5xv2c4OCo-14" value="Kova" style="rounded=1;whiteSpace=wrap;html=1;direction=west;" vertex="1" parent="1">
          <mxGeometry x="380" y="265" width="90" height="30" as="geometry" />
        </mxCell>
        <mxCell id="3qCVsPgU-vo5xv2c4OCo-15" value="Pieni" style="rounded=1;whiteSpace=wrap;html=1;" vertex="1" parent="1">
          <mxGeometry x="380" y="305" width="90" height="30" as="geometry" />
        </mxCell>
        <mxCell id="3qCVsPgU-vo5xv2c4OCo-16" value="Sateinen" style="rounded=1;whiteSpace=wrap;html=1;" vertex="1" parent="1">
          <mxGeometry x="380" y="210" width="90" height="30" as="geometry" />
        </mxCell>
        <mxCell id="3qCVsPgU-vo5xv2c4OCo-17" value="Ukkonen" style="rounded=1;whiteSpace=wrap;html=1;" vertex="1" parent="1">
          <mxGeometry x="380" y="170" width="90" height="30" as="geometry" />
        </mxCell>
        <mxCell id="3qCVsPgU-vo5xv2c4OCo-18" value="Aurinkoinen" style="rounded=1;whiteSpace=wrap;html=1;" vertex="1" parent="1">
          <mxGeometry x="380" y="130" width="90" height="30" as="geometry" />
        </mxCell>
        <mxCell id="3qCVsPgU-vo5xv2c4OCo-21" value="Tuulinen" style="rounded=1;whiteSpace=wrap;html=1;" vertex="1" parent="1">
          <mxGeometry x="380" y="90" width="90" height="30" as="geometry" />
        </mxCell>
        <mxCell id="3qCVsPgU-vo5xv2c4OCo-22" value="Pilvinen" style="rounded=1;whiteSpace=wrap;html=1;" vertex="1" parent="1">
          <mxGeometry x="380" y="50" width="90" height="30" as="geometry" />
        </mxCell>
        <mxCell id="3qCVsPgU-vo5xv2c4OCo-24" value="" style="endArrow=none;html=1;rounded=0;entryX=1;entryY=0.5;entryDx=0;entryDy=0;" edge="1" parent="1" target="3qCVsPgU-vo5xv2c4OCo-14">
          <mxGeometry width="50" height="50" relative="1" as="geometry">
            <mxPoint x="350" y="280" as="sourcePoint" />
            <mxPoint x="400" y="230" as="targetPoint" />
          </mxGeometry>
        </mxCell>
        <mxCell id="3qCVsPgU-vo5xv2c4OCo-25" value="" style="endArrow=none;html=1;rounded=0;entryX=0;entryY=0.5;entryDx=0;entryDy=0;exitX=1;exitY=0.75;exitDx=0;exitDy=0;" edge="1" parent="1" source="3qCVsPgU-vo5xv2c4OCo-4" target="3qCVsPgU-vo5xv2c4OCo-15">
          <mxGeometry width="50" height="50" relative="1" as="geometry">
            <mxPoint x="360" y="290" as="sourcePoint" />
            <mxPoint x="390" y="298" as="targetPoint" />
          </mxGeometry>
        </mxCell>
        <mxCell id="3qCVsPgU-vo5xv2c4OCo-26" value="" style="endArrow=none;html=1;rounded=0;exitX=1;exitY=0.25;exitDx=0;exitDy=0;entryX=0;entryY=0.5;entryDx=0;entryDy=0;" edge="1" parent="1" source="3qCVsPgU-vo5xv2c4OCo-5" target="3qCVsPgU-vo5xv2c4OCo-22">
          <mxGeometry width="50" height="50" relative="1" as="geometry">
            <mxPoint x="330" y="120" as="sourcePoint" />
            <mxPoint x="380" y="70" as="targetPoint" />
          </mxGeometry>
        </mxCell>
        <mxCell id="3qCVsPgU-vo5xv2c4OCo-27" value="" style="endArrow=none;html=1;rounded=0;entryX=0;entryY=0.5;entryDx=0;entryDy=0;exitX=1.001;exitY=0.421;exitDx=0;exitDy=0;exitPerimeter=0;" edge="1" parent="1" source="3qCVsPgU-vo5xv2c4OCo-5" target="3qCVsPgU-vo5xv2c4OCo-21">
          <mxGeometry width="50" height="50" relative="1" as="geometry">
            <mxPoint x="330" y="170" as="sourcePoint" />
            <mxPoint x="380" y="120" as="targetPoint" />
          </mxGeometry>
        </mxCell>
        <mxCell id="3qCVsPgU-vo5xv2c4OCo-28" value="" style="endArrow=none;html=1;rounded=0;entryX=0;entryY=0.5;entryDx=0;entryDy=0;" edge="1" parent="1" target="3qCVsPgU-vo5xv2c4OCo-17">
          <mxGeometry width="50" height="50" relative="1" as="geometry">
            <mxPoint x="350" y="180" as="sourcePoint" />
            <mxPoint x="380" y="145" as="targetPoint" />
          </mxGeometry>
        </mxCell>
        <mxCell id="3qCVsPgU-vo5xv2c4OCo-29" value="" style="endArrow=none;html=1;rounded=0;entryX=0;entryY=0.5;entryDx=0;entryDy=0;exitX=1;exitY=0.5;exitDx=0;exitDy=0;" edge="1" parent="1" source="3qCVsPgU-vo5xv2c4OCo-5" target="3qCVsPgU-vo5xv2c4OCo-18">
          <mxGeometry width="50" height="50" relative="1" as="geometry">
            <mxPoint x="350" y="170" as="sourcePoint" />
            <mxPoint x="370" y="145" as="targetPoint" />
          </mxGeometry>
        </mxCell>
        <mxCell id="3qCVsPgU-vo5xv2c4OCo-31" value="" style="endArrow=none;html=1;rounded=0;entryX=0;entryY=0.5;entryDx=0;entryDy=0;exitX=1;exitY=0.75;exitDx=0;exitDy=0;" edge="1" parent="1" source="3qCVsPgU-vo5xv2c4OCo-5" target="3qCVsPgU-vo5xv2c4OCo-16">
          <mxGeometry width="50" height="50" relative="1" as="geometry">
            <mxPoint x="330" y="280" as="sourcePoint" />
            <mxPoint x="380" y="230" as="targetPoint" />
          </mxGeometry>
        </mxCell>
        <mxCell id="3qCVsPgU-vo5xv2c4OCo-32" value="" style="endArrow=none;html=1;rounded=0;exitX=0;exitY=0.5;exitDx=0;exitDy=0;entryX=1;entryY=0.25;entryDx=0;entryDy=0;" edge="1" parent="1" source="3qCVsPgU-vo5xv2c4OCo-11" target="3qCVsPgU-vo5xv2c4OCo-3">
          <mxGeometry width="50" height="50" relative="1" as="geometry">
            <mxPoint x="190" y="490" as="sourcePoint" />
            <mxPoint x="240" y="440" as="targetPoint" />
          </mxGeometry>
        </mxCell>
        <mxCell id="3qCVsPgU-vo5xv2c4OCo-33" value="" style="endArrow=none;html=1;rounded=0;entryX=0;entryY=0.5;entryDx=0;entryDy=0;exitX=1;exitY=0.5;exitDx=0;exitDy=0;" edge="1" parent="1" source="3qCVsPgU-vo5xv2c4OCo-3" target="3qCVsPgU-vo5xv2c4OCo-12">
          <mxGeometry width="50" height="50" relative="1" as="geometry">
            <mxPoint x="390" y="380" as="sourcePoint" />
            <mxPoint x="440" y="330" as="targetPoint" />
          </mxGeometry>
        </mxCell>
        <mxCell id="3qCVsPgU-vo5xv2c4OCo-34" value="" style="endArrow=none;html=1;rounded=0;entryX=0;entryY=0.5;entryDx=0;entryDy=0;exitX=1;exitY=0.75;exitDx=0;exitDy=0;" edge="1" parent="1" source="3qCVsPgU-vo5xv2c4OCo-3" target="3qCVsPgU-vo5xv2c4OCo-13">
          <mxGeometry width="50" height="50" relative="1" as="geometry">
            <mxPoint x="390" y="380" as="sourcePoint" />
            <mxPoint x="440" y="330" as="targetPoint" />
          </mxGeometry>
        </mxCell>
        <mxCell id="3qCVsPgU-vo5xv2c4OCo-37" value="Aktiviteetit" style="rounded=1;whiteSpace=wrap;html=1;" vertex="1" parent="1">
          <mxGeometry x="670" y="245" width="120" height="60" as="geometry" />
        </mxCell>
        <mxCell id="3qCVsPgU-vo5xv2c4OCo-38" value="" style="endArrow=none;html=1;rounded=0;exitX=1;exitY=0.5;exitDx=0;exitDy=0;entryX=-0.005;entryY=0.625;entryDx=0;entryDy=0;entryPerimeter=0;" edge="1" parent="1" source="3qCVsPgU-vo5xv2c4OCo-15" target="3qCVsPgU-vo5xv2c4OCo-14">
          <mxGeometry width="50" height="50" relative="1" as="geometry">
            <mxPoint x="480" y="330" as="sourcePoint" />
            <mxPoint x="530" y="280" as="targetPoint" />
            <Array as="points">
              <mxPoint x="530" y="280" />
            </Array>
          </mxGeometry>
        </mxCell>
        <mxCell id="3qCVsPgU-vo5xv2c4OCo-40" value="" style="endArrow=none;html=1;rounded=0;exitX=1;exitY=0.5;exitDx=0;exitDy=0;entryX=1;entryY=0.5;entryDx=0;entryDy=0;" edge="1" parent="1" source="3qCVsPgU-vo5xv2c4OCo-13" target="3qCVsPgU-vo5xv2c4OCo-12">
          <mxGeometry width="50" height="50" relative="1" as="geometry">
            <mxPoint x="430" y="390" as="sourcePoint" />
            <mxPoint x="480" y="340" as="targetPoint" />
            <Array as="points">
              <mxPoint x="530" y="280" />
            </Array>
          </mxGeometry>
        </mxCell>
        <mxCell id="3qCVsPgU-vo5xv2c4OCo-41" value="" style="endArrow=none;html=1;rounded=0;" edge="1" parent="1">
          <mxGeometry width="50" height="50" relative="1" as="geometry">
            <mxPoint x="470" y="370" as="sourcePoint" />
            <mxPoint x="530" y="280" as="targetPoint" />
          </mxGeometry>
        </mxCell>
        <mxCell id="3qCVsPgU-vo5xv2c4OCo-42" value="" style="endArrow=none;html=1;rounded=0;exitX=1;exitY=0.5;exitDx=0;exitDy=0;entryX=1;entryY=0.5;entryDx=0;entryDy=0;" edge="1" parent="1" source="3qCVsPgU-vo5xv2c4OCo-16" target="3qCVsPgU-vo5xv2c4OCo-22">
          <mxGeometry width="50" height="50" relative="1" as="geometry">
            <mxPoint x="480" y="190" as="sourcePoint" />
            <mxPoint x="530" y="140" as="targetPoint" />
            <Array as="points">
              <mxPoint x="530" y="270" />
            </Array>
          </mxGeometry>
        </mxCell>
        <mxCell id="3qCVsPgU-vo5xv2c4OCo-43" value="" style="endArrow=none;html=1;rounded=0;entryX=1;entryY=0.5;entryDx=0;entryDy=0;" edge="1" parent="1" target="3qCVsPgU-vo5xv2c4OCo-21">
          <mxGeometry width="50" height="50" relative="1" as="geometry">
            <mxPoint x="530" y="270" as="sourcePoint" />
            <mxPoint x="530" y="140" as="targetPoint" />
          </mxGeometry>
        </mxCell>
        <mxCell id="3qCVsPgU-vo5xv2c4OCo-44" value="" style="endArrow=none;html=1;rounded=0;entryX=1;entryY=0.5;entryDx=0;entryDy=0;" edge="1" parent="1" target="3qCVsPgU-vo5xv2c4OCo-17">
          <mxGeometry width="50" height="50" relative="1" as="geometry">
            <mxPoint x="530" y="270" as="sourcePoint" />
            <mxPoint x="530" y="140" as="targetPoint" />
          </mxGeometry>
        </mxCell>
        <mxCell id="3qCVsPgU-vo5xv2c4OCo-48" value="" style="endArrow=none;html=1;rounded=0;entryX=1;entryY=0.5;entryDx=0;entryDy=0;" edge="1" parent="1" target="3qCVsPgU-vo5xv2c4OCo-18">
          <mxGeometry width="50" height="50" relative="1" as="geometry">
            <mxPoint x="530" y="270" as="sourcePoint" />
            <mxPoint x="530" y="140" as="targetPoint" />
          </mxGeometry>
        </mxCell>
        <mxCell id="3qCVsPgU-vo5xv2c4OCo-49" value="Yleinen (säätila, kova tai pieni, ei aktiviteetin kohderyhmää)" style="rounded=1;whiteSpace=wrap;html=1;" vertex="1" parent="1">
          <mxGeometry x="520" y="35" width="160" height="85" as="geometry" />
        </mxCell>
        <mxCell id="3qCVsPgU-vo5xv2c4OCo-50" value="Pariskunta (säätila, kova tai pieni, kohderyhmä pariskunta)" style="rounded=1;whiteSpace=wrap;html=1;" vertex="1" parent="1">
          <mxGeometry x="530" y="410" width="160" height="80" as="geometry" />
        </mxCell>
        <mxCell id="3qCVsPgU-vo5xv2c4OCo-51" value="Ystäväporukka (säätila, kova tai pieni, kohderyhmä ystäväporukka)" style="rounded=1;whiteSpace=wrap;html=1;" vertex="1" parent="1">
          <mxGeometry x="530" y="320" width="160" height="70" as="geometry" />
        </mxCell>
        <mxCell id="3qCVsPgU-vo5xv2c4OCo-54" value="" style="endArrow=none;html=1;rounded=0;exitX=0.5;exitY=1;exitDx=0;exitDy=0;entryX=1;entryY=0.5;entryDx=0;entryDy=0;" edge="1" parent="1" source="3qCVsPgU-vo5xv2c4OCo-37" target="3qCVsPgU-vo5xv2c4OCo-51">
          <mxGeometry width="50" height="50" relative="1" as="geometry">
            <mxPoint x="480" y="280" as="sourcePoint" />
            <mxPoint x="530" y="230" as="targetPoint" />
          </mxGeometry>
        </mxCell>
        <mxCell id="3qCVsPgU-vo5xv2c4OCo-55" value="" style="endArrow=none;html=1;rounded=0;exitX=0.5;exitY=0;exitDx=0;exitDy=0;entryX=1;entryY=0.5;entryDx=0;entryDy=0;" edge="1" parent="1" source="3qCVsPgU-vo5xv2c4OCo-37" target="3qCVsPgU-vo5xv2c4OCo-49">
          <mxGeometry width="50" height="50" relative="1" as="geometry">
            <mxPoint x="660" y="170" as="sourcePoint" />
            <mxPoint x="710" y="120" as="targetPoint" />
          </mxGeometry>
        </mxCell>
        <mxCell id="3qCVsPgU-vo5xv2c4OCo-56" value="" style="endArrow=none;html=1;rounded=0;exitX=0.5;exitY=1;exitDx=0;exitDy=0;entryX=1;entryY=0.5;entryDx=0;entryDy=0;" edge="1" parent="1" source="3qCVsPgU-vo5xv2c4OCo-37" target="3qCVsPgU-vo5xv2c4OCo-50">
          <mxGeometry width="50" height="50" relative="1" as="geometry">
            <mxPoint x="600" y="260" as="sourcePoint" />
            <mxPoint x="640" y="88" as="targetPoint" />
          </mxGeometry>
        </mxCell>
        <mxCell id="3qCVsPgU-vo5xv2c4OCo-57" value="" style="endArrow=none;html=1;rounded=0;exitX=0.5;exitY=0;exitDx=0;exitDy=0;entryX=1;entryY=0.5;entryDx=0;entryDy=0;" edge="1" parent="1" source="3qCVsPgU-vo5xv2c4OCo-37" target="3qCVsPgU-vo5xv2c4OCo-52">
          <mxGeometry width="50" height="50" relative="1" as="geometry">
            <mxPoint x="740" y="245" as="sourcePoint" />
            <mxPoint x="520" y="78" as="targetPoint" />
          </mxGeometry>
        </mxCell>
        <mxCell id="3qCVsPgU-vo5xv2c4OCo-52" value="Perhe (säätila, kova tai pieni, aktiviteetin kohderyhmä perhe)" style="rounded=1;whiteSpace=wrap;html=1;" vertex="1" parent="1">
          <mxGeometry x="520" y="135" width="160" height="70" as="geometry" />
        </mxCell>
        <mxCell id="3qCVsPgU-vo5xv2c4OCo-58" value="Kategoriat" style="rounded=1;whiteSpace=wrap;html=1;" vertex="1" parent="1">
          <mxGeometry x="530" y="230" width="110" height="75" as="geometry" />
        </mxCell>
        <mxCell id="3qCVsPgU-vo5xv2c4OCo-59" value="" style="endArrow=none;html=1;rounded=0;entryX=0.5;entryY=1;entryDx=0;entryDy=0;exitX=0.633;exitY=-0.003;exitDx=0;exitDy=0;exitPerimeter=0;" edge="1" parent="1" source="3qCVsPgU-vo5xv2c4OCo-58" target="3qCVsPgU-vo5xv2c4OCo-52">
          <mxGeometry width="50" height="50" relative="1" as="geometry">
            <mxPoint x="480" y="280" as="sourcePoint" />
            <mxPoint x="530" y="230" as="targetPoint" />
          </mxGeometry>
        </mxCell>
        <mxCell id="3qCVsPgU-vo5xv2c4OCo-60" value="" style="endArrow=none;html=1;rounded=0;entryX=0.647;entryY=0.989;entryDx=0;entryDy=0;entryPerimeter=0;exitX=0.445;exitY=0.026;exitDx=0;exitDy=0;exitPerimeter=0;" edge="1" parent="1" source="3qCVsPgU-vo5xv2c4OCo-51" target="3qCVsPgU-vo5xv2c4OCo-58">
          <mxGeometry width="50" height="50" relative="1" as="geometry">
            <mxPoint x="480" y="280" as="sourcePoint" />
            <mxPoint x="530" y="230" as="targetPoint" />
          </mxGeometry>
        </mxCell>
        <mxCell id="3qCVsPgU-vo5xv2c4OCo-61" value="" style="endArrow=none;html=1;rounded=0;entryX=0.5;entryY=1;entryDx=0;entryDy=0;exitX=0.5;exitY=0;exitDx=0;exitDy=0;" edge="1" parent="1" source="3qCVsPgU-vo5xv2c4OCo-52" target="3qCVsPgU-vo5xv2c4OCo-49">
          <mxGeometry width="50" height="50" relative="1" as="geometry">
            <mxPoint x="480" y="280" as="sourcePoint" />
            <mxPoint x="530" y="230" as="targetPoint" />
          </mxGeometry>
        </mxCell>
        <mxCell id="3qCVsPgU-vo5xv2c4OCo-62" value="" style="endArrow=none;html=1;rounded=0;entryX=0.5;entryY=1;entryDx=0;entryDy=0;exitX=0.5;exitY=0;exitDx=0;exitDy=0;" edge="1" parent="1" source="3qCVsPgU-vo5xv2c4OCo-50" target="3qCVsPgU-vo5xv2c4OCo-51">
          <mxGeometry width="50" height="50" relative="1" as="geometry">
            <mxPoint x="480" y="280" as="sourcePoint" />
            <mxPoint x="530" y="230" as="targetPoint" />
          </mxGeometry>
        </mxCell>
      </root>
    </mxGraphModel>
  </diagram>
</mxfile>
